<svg xmlns="http://www.w3.org/2000/svg" xmlns:xlink="http://www.w3.org/1999/xlink" width="1587" zoomAndPan="magnify" viewBox="0 0 1190.25 842.249979" height="1123" preserveAspectRatio="xMidYMid meet" version="1.0"><defs><clipPath id="e39a63c724"><path d="M 18 33.085938 L 339 33.085938 L 339 538 L 18 538 Z M 18 33.085938 " clip-rule="nonzero"/></clipPath><clipPath id="1c14b6fa38"><path d="M 166.820312 440.917969 L 338.785156 440.917969 L 338.785156 537.277344 L 242.464844 537.277344 C 153.085938 537.277344 88.832031 471.464844 88.832031 383.644531 L 87.460938 65.988281 L 52.496094 65.988281 L 52.496094 371.0625 C 53.386719 453.871094 88.757812 502.867188 161.882812 537.832031 C 61.550781 522.390625 18.308594 460.628906 18.570312 360.890625 L 18.570312 33.921875 L 121.683594 33.921875 L 120.347656 379.191406 C 120.347656 455.171875 167.339844 505.539062 242.277344 505.539062 L 306.714844 505.539062 L 306.195312 474.324219 L 204.828125 474.324219 C 184.300781 471.316406 172.238281 459.550781 166.855469 440.917969 " clip-rule="nonzero"/></clipPath><clipPath id="7e8e7dbca6"><path d="M 0.234375 0.761719 L 320.828125 0.761719 L 320.828125 505 L 0.234375 505 Z M 0.234375 0.761719 " clip-rule="nonzero"/></clipPath><clipPath id="898748941e"><path d="M 148.820312 407.917969 L 320.785156 407.917969 L 320.785156 504.277344 L 224.464844 504.277344 C 135.085938 504.277344 70.832031 438.464844 70.832031 350.644531 L 69.460938 32.988281 L 34.496094 32.988281 L 34.496094 338.0625 C 35.386719 420.871094 70.757812 469.867188 143.882812 504.832031 C 43.550781 489.390625 0.308594 427.628906 0.570312 327.890625 L 0.570312 0.921875 L 103.683594 0.921875 L 102.347656 346.191406 C 102.347656 422.171875 149.339844 472.539062 224.277344 472.539062 L 288.714844 472.539062 L 288.195312 441.324219 L 186.828125 441.324219 C 166.300781 438.316406 154.238281 426.550781 148.855469 407.917969 " clip-rule="nonzero"/></clipPath><clipPath id="a0e7bad47e"><rect x="0" width="321" y="0" height="505"/></clipPath><clipPath id="8a0521775e"><path d="M 169.386719 25 L 492 25 L 492 536 L 169.386719 536 Z M 169.386719 25 " clip-rule="nonzero"/></clipPath><clipPath id="a869a2624e"><path d="M 203.378906 412.894531 L 202.042969 63.6875 L 266.738281 63.6875 C 342.015625 63.6875 389.191406 114.058594 389.191406 190.039062 L 389.191406 243.597656 L 238.640625 243.597656 L 238.640625 344.003906 L 387.816406 344.003906 L 387.816406 535.269531 L 491.378906 535.269531 L 491.378906 208.335938 C 491.378906 111.496094 444.460938 43.832031 351.886719 25.421875 C 418.699219 65.878906 459.160156 117.359375 457.304688 198.167969 L 457.304688 503.238281 L 422.1875 503.238281 L 422.1875 310.113281 L 272.714844 310.113281 L 272.714844 276.152344 L 420.851562 276.152344 L 420.851562 185.621094 C 420.851562 97.761719 356.304688 31.992188 266.554688 31.992188 L 169.863281 31.992188 L 169.863281 412.894531 Z M 203.378906 412.894531 " clip-rule="nonzero"/></clipPath><clipPath id="9898f11cfc"><path d="M 0.78125 0.371094 L 322.574219 0.371094 L 322.574219 510.398438 L 0.78125 510.398438 Z M 0.78125 0.371094 " clip-rule="nonzero"/></clipPath><clipPath id="bf6d5829fd"><path d="M 34.378906 387.894531 L 33.042969 38.6875 L 97.738281 38.6875 C 173.015625 38.6875 220.191406 89.058594 220.191406 165.039062 L 220.191406 218.597656 L 69.640625 218.597656 L 69.640625 319.003906 L 218.816406 319.003906 L 218.816406 510.269531 L 322.378906 510.269531 L 322.378906 183.335938 C 322.378906 86.496094 275.460938 18.832031 182.886719 0.421875 C 249.699219 40.878906 290.160156 92.359375 288.304688 173.167969 L 288.304688 478.238281 L 253.1875 478.238281 L 253.1875 285.113281 L 103.714844 285.113281 L 103.714844 251.152344 L 251.851562 251.152344 L 251.851562 160.621094 C 251.851562 72.761719 187.304688 6.992188 97.554688 6.992188 L 0.863281 6.992188 L 0.863281 387.894531 Z M 34.378906 387.894531 " clip-rule="nonzero"/></clipPath><clipPath id="015b0dc886"><rect x="0" width="323" y="0" height="511"/></clipPath><clipPath id="b258f7cdda"><path d="M 526 19 L 847 19 L 847 536 L 526 536 Z M 526 19 " clip-rule="nonzero"/></clipPath><clipPath id="dd5f68d737"><path d="M 678.710938 128.3125 L 846.929688 128.3125 L 846.929688 31.953125 L 750.609375 31.953125 C 661.226562 31.953125 596.976562 97.761719 596.976562 185.582031 L 596.976562 276.152344 L 744.519531 276.152344 L 744.519531 310.078125 L 595.605469 310.078125 L 595.605469 503.238281 L 560.640625 503.238281 L 560.640625 198.167969 C 560.640625 121.183594 595.828125 67.105469 663.753906 19.074219 C 575.003906 50.550781 526.714844 111.496094 526.714844 208.335938 L 526.714844 535.308594 L 629.828125 535.308594 L 629.828125 344.003906 L 778.371094 344.003906 L 778.371094 243.597656 L 628.492188 243.597656 L 628.492188 190 C 628.492188 114.019531 675.480469 63.652344 750.421875 63.652344 L 814.859375 63.652344 L 814.339844 94.867188 L 716.683594 94.867188 C 696.15625 97.875 684.09375 109.640625 678.710938 128.273438 " clip-rule="nonzero"/></clipPath><clipPath id="6952dbd1bb"><path d="M 0.582031 0 L 320.9375 0 L 320.9375 516.398438 L 0.582031 516.398438 Z M 0.582031 0 " clip-rule="nonzero"/></clipPath><clipPath id="da554aee8c"><path d="M 152.710938 109.3125 L 320.929688 109.3125 L 320.929688 12.953125 L 224.609375 12.953125 C 135.226562 12.953125 70.976562 78.761719 70.976562 166.582031 L 70.976562 257.152344 L 218.519531 257.152344 L 218.519531 291.078125 L 69.605469 291.078125 L 69.605469 484.238281 L 34.640625 484.238281 L 34.640625 179.167969 C 34.640625 102.183594 69.828125 48.105469 137.753906 0.0742188 C 49.003906 31.550781 0.714844 92.496094 0.714844 189.335938 L 0.714844 516.308594 L 103.828125 516.308594 L 103.828125 325.003906 L 252.371094 325.003906 L 252.371094 224.597656 L 102.492188 224.597656 L 102.492188 171 C 102.492188 95.019531 149.480469 44.652344 224.421875 44.652344 L 288.859375 44.652344 L 288.339844 75.867188 L 190.683594 75.867188 C 170.15625 78.875 158.09375 90.640625 152.710938 109.273438 " clip-rule="nonzero"/></clipPath><clipPath id="5f90b3ce13"><rect x="0" width="321" y="0" height="517"/></clipPath><clipPath id="3034f4570b"><rect x="0" width="867" y="0" height="557"/></clipPath></defs><g transform="matrix(1, 0, 0, 1, 162, 142)"><g clip-path="url(#3034f4570b)"><g clip-path="url(#e39a63c724)"><g clip-path="url(#1c14b6fa38)"><g transform="matrix(1, 0, 0, 1, 18, 33)"><g clip-path="url(#a0e7bad47e)"><g clip-path="url(#7e8e7dbca6)"><g clip-path="url(#898748941e)"><rect x="-613.251" width="2056.752" fill="#010101" y="-481.578992" height="1455.407963" fill-opacity="1"/></g></g></g></g></g></g><g clip-path="url(#8a0521775e)"><g clip-path="url(#a869a2624e)"><g transform="matrix(1, 0, 0, 1, 169, 25)"><g clip-path="url(#015b0dc886)"><g clip-path="url(#9898f11cfc)"><g clip-path="url(#bf6d5829fd)"><rect x="-764.251" width="2056.752" fill="#010101" y="-473.578992" height="1455.407963" fill-opacity="1"/></g></g></g></g></g></g><g clip-path="url(#b258f7cdda)"><g clip-path="url(#dd5f68d737)"><g transform="matrix(1, 0, 0, 1, 526, 19)"><g clip-path="url(#5f90b3ce13)"><g clip-path="url(#6952dbd1bb)"><g clip-path="url(#da554aee8c)"><rect x="-1121.251" width="2056.752" fill="#010101" y="-467.578992" height="1455.407963" fill-opacity="1"/></g></g></g></g></g></g></g></g></svg>